<?xml version="1.0" standalone="no"?>
<!DOCTYPE svg PUBLIC "-//W3C//DTD SVG 1.1//EN"
        "http://www.w3.org/Graphics/SVG/1.1/DTD/svg11.dtd">
<svg width="100%" height="100%" version="1.1"
     xmlns="http://www.w3.org/2000/svg" viewBox="0 0 360 480">
    <!--红色-->
    <rect x="90" y="0" width="150" height="30" style="fill:rgb(251,75,55)" />
    <rect x="60" y="30" width="270" height="30" style="fill:rgb(251,75,55)" />
    <rect x="120" y="210" width="30" height="90" style="fill:rgb(251,75,55)" />
    <rect x="150" y="270" width="90" height="30" style="fill:rgb(251,75,55)" />
    <rect x="210" y="240" width="30" height="30" style="fill:rgb(251,75,55)" />
    <rect x="90" y="300" width="30" height="30" style="fill:rgb(251,75,55)" />
    <rect x="150" y="300" width="60" height="30" style="fill:rgb(251,75,55)" />
    <rect x="240" y="300" width="30" height="30" style="fill:rgb(251,75,55)" />
    <rect x="90" y="330" width="180" height="60" style="fill:rgb(251,75,55)" />
    <rect x="60" y="360" width="90" height="60" style="fill:rgb(251,75,55)" />
    <rect x="210" y="360" width="90" height="60" style="fill:rgb(251,75,55)" />

    <!--棕色-->
    <rect x="60" y="60" width="90" height="30" style="fill:rgb(178,126,49)" />
    <rect x="210" y="60" width="30" height="60" style="fill:rgb(178,126,49)" />
    <rect x="30" y="90" width="30" height="90" style="fill:rgb(178,126,49)" />
    <rect x="60" y="150" width="30" height="30" style="fill:rgb(178,126,49)" />
    <rect x="90" y="90" width="60" height="60" style="fill:rgb(178,126,49)" />
    <rect x="210" y="120" width="120" height="60" style="fill:rgb(178,126,49)" />
    <rect x="60" y="210" width="60" height="30" style="fill:rgb(178,126,49)" />
    <rect x="30" y="240" width="90" height="30" style="fill:rgb(178,126,49)" />
    <rect x="0" y="270" width="120" height="30" style="fill:rgb(178,126,49)" />
    <rect x="60" y="300" width="30" height="30" style="fill:rgb(178,126,49)" />
    <rect x="150" y="210" width="60" height="60" style="fill:rgb(178,126,49)" />
    <rect x="210" y="210" width="60" height="30" style="fill:rgb(178,126,49)" />
    <rect x="240" y="240" width="90" height="30" style="fill:rgb(178,126,49)" />
    <rect x="240" y="270" width="120" height="30" style="fill:rgb(178,126,49)" />
    <rect x="270" y="300" width="30" height="30" style="fill:rgb(178,126,49)" />
    <rect x="0" y="450" width="30" height="30" style="fill:rgb(178,126,49)" />
    <rect x="30" y="420" width="90" height="60" style="fill:rgb(178,126,49)" />
    <rect x="240" y="420" width="90" height="60" style="fill:rgb(178,126,49)" />
    <rect x="330" y="450" width="30" height="30" style="fill:rgb(178,126,49)" />

    <!--黄色-->
    <rect x="150" y="60" width="60" height="150" style="fill:rgb(255,164,96)" />
    <rect x="240" y="60" width="30" height="60" style="fill:rgb(255,164,96)" />
    <rect x="270" y="90" width="60" height="30" style="fill:rgb(255,164,96)" />
    <rect x="120" y="90" width="30" height="30" style="fill:rgb(255,164,96)" />
    <rect x="60" y="90" width="30" height="60" style="fill:rgb(255,164,96)" />
    <rect x="210" y="120" width="30" height="30" style="fill:rgb(255,164,96)" />
    <rect x="270" y="120" width="90" height="30" style="fill:rgb(255,164,96)" />
    <rect x="90" y="150" width="60" height="60" style="fill:rgb(255,164,96)" />
    <rect x="210" y="180" width="90" height="30" style="fill:rgb(255,164,96)" />
    <rect x="0" y="300" width="60" height="90" style="fill:rgb(255,164,96)" />
    <rect x="60" y="330" width="30" height="30" style="fill:rgb(255,164,96)" />
    <rect x="300" y="300" width="60" height="90" style="fill:rgb(255,164,96)" />
    <rect x="270" y="330" width="30" height="30" style="fill:rgb(255,164,96)" />
    <rect x="120" y="300" width="30" height="30" style="fill:rgb(255,164,96)" />
    <rect x="210" y="300" width="30" height="30" style="fill:rgb(255,164,96)" />

</svg>